<svg width="499" height="150" viewBox="0 0 499 150" fill="none" xmlns="http://www.w3.org/2000/svg">
<path d="M50 50H25V112.5H50V50ZM0 125V37.5H62.5V50H75V112.5H62.5V125H0Z" fill="black" class="svg-elem-1"></path>
<path d="M88 125V37.5H113V125H88Z" fill="black" class="svg-elem-2"></path>
<path d="M176 114.062V125H138.5V112.5H126V50H138.5V37.5H201V62.5H188.5V50H151V112.5H174.438L176 110.938V87.5H163.5V75H201V125H188.5V112.5H177.562L176 114.062Z" fill="black" class="svg-elem-3"></path>
<path d="M214 125V37.5H239V125H214Z" fill="black" class="svg-elem-4"></path>
<path d="M298 50H273V112.5H298V50ZM248 125V37.5H310.5V50H323V112.5H310.5V125H248Z" fill="black" class="svg-elem-5"></path>
<path d="M336 125V37.5H398.5V50H361V75H398.5V87.5H361V112.5H398.5V125H336Z" fill="black" class="svg-elem-6"></path>
<path d="M448.5 62.5H461V37.5H486V62.5H473.5V75H461V87.5H473.5V100H486V125H461V100H448.5V87.5H436V125H411V87.5H423.5V75H436V62.5H423.5V50H411V37.5H436V50H448.5V62.5Z" fill="black" class="svg-elem-7"></path>
</svg>